<?xml version="1.0" encoding="utf-8" standalone="no"?>
<!DOCTYPE svg PUBLIC "-//W3C//DTD SVG 1.1//EN"
  "http://www.w3.org/Graphics/SVG/1.1/DTD/svg11.dtd">
<!-- Created with matplotlib (https://matplotlib.org/) -->
<svg height="502.56pt" version="1.1" viewBox="0 0 983.52 502.56" width="983.52pt" xmlns="http://www.w3.org/2000/svg" xmlns:xlink="http://www.w3.org/1999/xlink">
 <defs>
  <style type="text/css">
*{stroke-linecap:butt;stroke-linejoin:round;}
  </style>
 </defs>
 <g id="figure_1">
  <g id="patch_1">
   <path d="M 0 502.56 
L 983.52 502.56 
L 983.52 0 
L 0 0 
z
" style="fill:#ffffff;"/>
  </g>
  <g id="axes_1">
   <g id="patch_2">
    <path d="M 122.94 447.2784 
L 885.168 447.2784 
L 885.168 60.3072 
L 122.94 60.3072 
z
" style="fill:#ffffff;"/>
   </g>
   <g id="matplotlib.axis_1">
    <g id="xtick_1">
     <g id="line2d_1">
      <defs>
       <path d="M 0 0 
L 0 3.5 
" id="m8e2e2924f0" style="stroke:#000000;stroke-width:0.8;"/>
      </defs>
      <g>
       <use style="stroke:#000000;stroke-width:0.8;" x="199.1628" xlink:href="#m8e2e2924f0" y="447.2784"/>
      </g>
     </g>
     <g id="text_1">
      <!-- 2 -->
      <defs>
       <path d="M 19.1875 8.296875 
L 53.609375 8.296875 
L 53.609375 0 
L 7.328125 0 
L 7.328125 8.296875 
Q 12.9375 14.109375 22.625 23.890625 
Q 32.328125 33.6875 34.8125 36.53125 
Q 39.546875 41.84375 41.421875 45.53125 
Q 43.3125 49.21875 43.3125 52.78125 
Q 43.3125 58.59375 39.234375 62.25 
Q 35.15625 65.921875 28.609375 65.921875 
Q 23.96875 65.921875 18.8125 64.3125 
Q 13.671875 62.703125 7.8125 59.421875 
L 7.8125 69.390625 
Q 13.765625 71.78125 18.9375 73 
Q 24.125 74.21875 28.421875 74.21875 
Q 39.75 74.21875 46.484375 68.546875 
Q 53.21875 62.890625 53.21875 53.421875 
Q 53.21875 48.921875 51.53125 44.890625 
Q 49.859375 40.875 45.40625 35.40625 
Q 44.1875 33.984375 37.640625 27.21875 
Q 31.109375 20.453125 19.1875 8.296875 
z
" id="DejaVuSans-50"/>
      </defs>
      <g transform="translate(195.98155 461.876838)scale(0.1 -0.1)">
       <use xlink:href="#DejaVuSans-50"/>
      </g>
     </g>
    </g>
    <g id="xtick_2">
     <g id="line2d_2">
      <g>
       <use style="stroke:#000000;stroke-width:0.8;" x="351.6084" xlink:href="#m8e2e2924f0" y="447.2784"/>
      </g>
     </g>
     <g id="text_2">
      <!-- 3 -->
      <defs>
       <path d="M 40.578125 39.3125 
Q 47.65625 37.796875 51.625 33 
Q 55.609375 28.21875 55.609375 21.1875 
Q 55.609375 10.40625 48.1875 4.484375 
Q 40.765625 -1.421875 27.09375 -1.421875 
Q 22.515625 -1.421875 17.65625 -0.515625 
Q 12.796875 0.390625 7.625 2.203125 
L 7.625 11.71875 
Q 11.71875 9.328125 16.59375 8.109375 
Q 21.484375 6.890625 26.8125 6.890625 
Q 36.078125 6.890625 40.9375 10.546875 
Q 45.796875 14.203125 45.796875 21.1875 
Q 45.796875 27.640625 41.28125 31.265625 
Q 36.765625 34.90625 28.71875 34.90625 
L 20.21875 34.90625 
L 20.21875 43.015625 
L 29.109375 43.015625 
Q 36.375 43.015625 40.234375 45.921875 
Q 44.09375 48.828125 44.09375 54.296875 
Q 44.09375 59.90625 40.109375 62.90625 
Q 36.140625 65.921875 28.71875 65.921875 
Q 24.65625 65.921875 20.015625 65.03125 
Q 15.375 64.15625 9.8125 62.3125 
L 9.8125 71.09375 
Q 15.4375 72.65625 20.34375 73.4375 
Q 25.25 74.21875 29.59375 74.21875 
Q 40.828125 74.21875 47.359375 69.109375 
Q 53.90625 64.015625 53.90625 55.328125 
Q 53.90625 49.265625 50.4375 45.09375 
Q 46.96875 40.921875 40.578125 39.3125 
z
" id="DejaVuSans-51"/>
      </defs>
      <g transform="translate(348.42715 461.876838)scale(0.1 -0.1)">
       <use xlink:href="#DejaVuSans-51"/>
      </g>
     </g>
    </g>
    <g id="xtick_3">
     <g id="line2d_3">
      <g>
       <use style="stroke:#000000;stroke-width:0.8;" x="504.054" xlink:href="#m8e2e2924f0" y="447.2784"/>
      </g>
     </g>
     <g id="text_3">
      <!-- 4 -->
      <defs>
       <path d="M 37.796875 64.3125 
L 12.890625 25.390625 
L 37.796875 25.390625 
z
M 35.203125 72.90625 
L 47.609375 72.90625 
L 47.609375 25.390625 
L 58.015625 25.390625 
L 58.015625 17.1875 
L 47.609375 17.1875 
L 47.609375 0 
L 37.796875 0 
L 37.796875 17.1875 
L 4.890625 17.1875 
L 4.890625 26.703125 
z
" id="DejaVuSans-52"/>
      </defs>
      <g transform="translate(500.87275 461.876838)scale(0.1 -0.1)">
       <use xlink:href="#DejaVuSans-52"/>
      </g>
     </g>
    </g>
    <g id="xtick_4">
     <g id="line2d_4">
      <g>
       <use style="stroke:#000000;stroke-width:0.8;" x="656.4996" xlink:href="#m8e2e2924f0" y="447.2784"/>
      </g>
     </g>
     <g id="text_4">
      <!-- 5 -->
      <defs>
       <path d="M 10.796875 72.90625 
L 49.515625 72.90625 
L 49.515625 64.59375 
L 19.828125 64.59375 
L 19.828125 46.734375 
Q 21.96875 47.46875 24.109375 47.828125 
Q 26.265625 48.1875 28.421875 48.1875 
Q 40.625 48.1875 47.75 41.5 
Q 54.890625 34.8125 54.890625 23.390625 
Q 54.890625 11.625 47.5625 5.09375 
Q 40.234375 -1.421875 26.90625 -1.421875 
Q 22.3125 -1.421875 17.546875 -0.640625 
Q 12.796875 0.140625 7.71875 1.703125 
L 7.71875 11.625 
Q 12.109375 9.234375 16.796875 8.0625 
Q 21.484375 6.890625 26.703125 6.890625 
Q 35.15625 6.890625 40.078125 11.328125 
Q 45.015625 15.765625 45.015625 23.390625 
Q 45.015625 31 40.078125 35.4375 
Q 35.15625 39.890625 26.703125 39.890625 
Q 22.75 39.890625 18.8125 39.015625 
Q 14.890625 38.140625 10.796875 36.28125 
z
" id="DejaVuSans-53"/>
      </defs>
      <g transform="translate(653.31835 461.876838)scale(0.1 -0.1)">
       <use xlink:href="#DejaVuSans-53"/>
      </g>
     </g>
    </g>
    <g id="xtick_5">
     <g id="line2d_5">
      <g>
       <use style="stroke:#000000;stroke-width:0.8;" x="808.9452" xlink:href="#m8e2e2924f0" y="447.2784"/>
      </g>
     </g>
     <g id="text_5">
      <!-- 6 -->
      <defs>
       <path d="M 33.015625 40.375 
Q 26.375 40.375 22.484375 35.828125 
Q 18.609375 31.296875 18.609375 23.390625 
Q 18.609375 15.53125 22.484375 10.953125 
Q 26.375 6.390625 33.015625 6.390625 
Q 39.65625 6.390625 43.53125 10.953125 
Q 47.40625 15.53125 47.40625 23.390625 
Q 47.40625 31.296875 43.53125 35.828125 
Q 39.65625 40.375 33.015625 40.375 
z
M 52.59375 71.296875 
L 52.59375 62.3125 
Q 48.875 64.0625 45.09375 64.984375 
Q 41.3125 65.921875 37.59375 65.921875 
Q 27.828125 65.921875 22.671875 59.328125 
Q 17.53125 52.734375 16.796875 39.40625 
Q 19.671875 43.65625 24.015625 45.921875 
Q 28.375 48.1875 33.59375 48.1875 
Q 44.578125 48.1875 50.953125 41.515625 
Q 57.328125 34.859375 57.328125 23.390625 
Q 57.328125 12.15625 50.6875 5.359375 
Q 44.046875 -1.421875 33.015625 -1.421875 
Q 20.359375 -1.421875 13.671875 8.265625 
Q 6.984375 17.96875 6.984375 36.375 
Q 6.984375 53.65625 15.1875 63.9375 
Q 23.390625 74.21875 37.203125 74.21875 
Q 40.921875 74.21875 44.703125 73.484375 
Q 48.484375 72.75 52.59375 71.296875 
z
" id="DejaVuSans-54"/>
      </defs>
      <g transform="translate(805.76395 461.876838)scale(0.1 -0.1)">
       <use xlink:href="#DejaVuSans-54"/>
      </g>
     </g>
    </g>
    <g id="text_6">
     <!-- Size -->
     <defs>
      <path d="M 53.515625 70.515625 
L 53.515625 60.890625 
Q 47.90625 63.578125 42.921875 64.890625 
Q 37.9375 66.21875 33.296875 66.21875 
Q 25.25 66.21875 20.875 63.09375 
Q 16.5 59.96875 16.5 54.203125 
Q 16.5 49.359375 19.40625 46.890625 
Q 22.3125 44.4375 30.421875 42.921875 
L 36.375 41.703125 
Q 47.40625 39.59375 52.65625 34.296875 
Q 57.90625 29 57.90625 20.125 
Q 57.90625 9.515625 50.796875 4.046875 
Q 43.703125 -1.421875 29.984375 -1.421875 
Q 24.8125 -1.421875 18.96875 -0.25 
Q 13.140625 0.921875 6.890625 3.21875 
L 6.890625 13.375 
Q 12.890625 10.015625 18.65625 8.296875 
Q 24.421875 6.59375 29.984375 6.59375 
Q 38.421875 6.59375 43.015625 9.90625 
Q 47.609375 13.234375 47.609375 19.390625 
Q 47.609375 24.75 44.3125 27.78125 
Q 41.015625 30.8125 33.5 32.328125 
L 27.484375 33.5 
Q 16.453125 35.6875 11.515625 40.375 
Q 6.59375 45.0625 6.59375 53.421875 
Q 6.59375 63.09375 13.40625 68.65625 
Q 20.21875 74.21875 32.171875 74.21875 
Q 37.3125 74.21875 42.625 73.28125 
Q 47.953125 72.359375 53.515625 70.515625 
z
" id="DejaVuSans-83"/>
      <path d="M 9.421875 54.6875 
L 18.40625 54.6875 
L 18.40625 0 
L 9.421875 0 
z
M 9.421875 75.984375 
L 18.40625 75.984375 
L 18.40625 64.59375 
L 9.421875 64.59375 
z
" id="DejaVuSans-105"/>
      <path d="M 5.515625 54.6875 
L 48.1875 54.6875 
L 48.1875 46.484375 
L 14.40625 7.171875 
L 48.1875 7.171875 
L 48.1875 0 
L 4.296875 0 
L 4.296875 8.203125 
L 38.09375 47.515625 
L 5.515625 47.515625 
z
" id="DejaVuSans-122"/>
      <path d="M 56.203125 29.59375 
L 56.203125 25.203125 
L 14.890625 25.203125 
Q 15.484375 15.921875 20.484375 11.0625 
Q 25.484375 6.203125 34.421875 6.203125 
Q 39.59375 6.203125 44.453125 7.46875 
Q 49.3125 8.734375 54.109375 11.28125 
L 54.109375 2.78125 
Q 49.265625 0.734375 44.1875 -0.34375 
Q 39.109375 -1.421875 33.890625 -1.421875 
Q 20.796875 -1.421875 13.15625 6.1875 
Q 5.515625 13.8125 5.515625 26.8125 
Q 5.515625 40.234375 12.765625 48.109375 
Q 20.015625 56 32.328125 56 
Q 43.359375 56 49.78125 48.890625 
Q 56.203125 41.796875 56.203125 29.59375 
z
M 47.21875 32.234375 
Q 47.125 39.59375 43.09375 43.984375 
Q 39.0625 48.390625 32.421875 48.390625 
Q 24.90625 48.390625 20.390625 44.140625 
Q 15.875 39.890625 15.1875 32.171875 
z
" id="DejaVuSans-101"/>
     </defs>
     <g transform="translate(493.789938 475.554963)scale(0.1 -0.1)">
      <use xlink:href="#DejaVuSans-83"/>
      <use x="63.476562" xlink:href="#DejaVuSans-105"/>
      <use x="91.259766" xlink:href="#DejaVuSans-122"/>
      <use x="143.75" xlink:href="#DejaVuSans-101"/>
     </g>
    </g>
   </g>
   <g id="matplotlib.axis_2">
    <g id="ytick_1">
     <g id="line2d_6">
      <defs>
       <path d="M 0 0 
L -3.5 0 
" id="ma6a35e6ca9" style="stroke:#000000;stroke-width:0.8;"/>
      </defs>
      <g>
       <use style="stroke:#000000;stroke-width:0.8;" x="122.94" xlink:href="#ma6a35e6ca9" y="431.85972"/>
      </g>
     </g>
     <g id="text_7">
      <!-- 0.0 -->
      <defs>
       <path d="M 31.78125 66.40625 
Q 24.171875 66.40625 20.328125 58.90625 
Q 16.5 51.421875 16.5 36.375 
Q 16.5 21.390625 20.328125 13.890625 
Q 24.171875 6.390625 31.78125 6.390625 
Q 39.453125 6.390625 43.28125 13.890625 
Q 47.125 21.390625 47.125 36.375 
Q 47.125 51.421875 43.28125 58.90625 
Q 39.453125 66.40625 31.78125 66.40625 
z
M 31.78125 74.21875 
Q 44.046875 74.21875 50.515625 64.515625 
Q 56.984375 54.828125 56.984375 36.375 
Q 56.984375 17.96875 50.515625 8.265625 
Q 44.046875 -1.421875 31.78125 -1.421875 
Q 19.53125 -1.421875 13.0625 8.265625 
Q 6.59375 17.96875 6.59375 36.375 
Q 6.59375 54.828125 13.0625 64.515625 
Q 19.53125 74.21875 31.78125 74.21875 
z
" id="DejaVuSans-48"/>
       <path d="M 10.6875 12.40625 
L 21 12.40625 
L 21 0 
L 10.6875 0 
z
" id="DejaVuSans-46"/>
      </defs>
      <g transform="translate(100.036875 435.658939)scale(0.1 -0.1)">
       <use xlink:href="#DejaVuSans-48"/>
       <use x="63.623047" xlink:href="#DejaVuSans-46"/>
       <use x="95.410156" xlink:href="#DejaVuSans-48"/>
      </g>
     </g>
    </g>
    <g id="ytick_2">
     <g id="line2d_7">
      <g>
       <use style="stroke:#000000;stroke-width:0.8;" x="122.94" xlink:href="#ma6a35e6ca9" y="357.965848"/>
      </g>
     </g>
     <g id="text_8">
      <!-- 0.5 -->
      <g transform="translate(100.036875 361.765067)scale(0.1 -0.1)">
       <use xlink:href="#DejaVuSans-48"/>
       <use x="63.623047" xlink:href="#DejaVuSans-46"/>
       <use x="95.410156" xlink:href="#DejaVuSans-53"/>
      </g>
     </g>
    </g>
    <g id="ytick_3">
     <g id="line2d_8">
      <g>
       <use style="stroke:#000000;stroke-width:0.8;" x="122.94" xlink:href="#ma6a35e6ca9" y="284.071976"/>
      </g>
     </g>
     <g id="text_9">
      <!-- 1.0 -->
      <defs>
       <path d="M 12.40625 8.296875 
L 28.515625 8.296875 
L 28.515625 63.921875 
L 10.984375 60.40625 
L 10.984375 69.390625 
L 28.421875 72.90625 
L 38.28125 72.90625 
L 38.28125 8.296875 
L 54.390625 8.296875 
L 54.390625 0 
L 12.40625 0 
z
" id="DejaVuSans-49"/>
      </defs>
      <g transform="translate(100.036875 287.871194)scale(0.1 -0.1)">
       <use xlink:href="#DejaVuSans-49"/>
       <use x="63.623047" xlink:href="#DejaVuSans-46"/>
       <use x="95.410156" xlink:href="#DejaVuSans-48"/>
      </g>
     </g>
    </g>
    <g id="ytick_4">
     <g id="line2d_9">
      <g>
       <use style="stroke:#000000;stroke-width:0.8;" x="122.94" xlink:href="#ma6a35e6ca9" y="210.178104"/>
      </g>
     </g>
     <g id="text_10">
      <!-- 1.5 -->
      <g transform="translate(100.036875 213.977322)scale(0.1 -0.1)">
       <use xlink:href="#DejaVuSans-49"/>
       <use x="63.623047" xlink:href="#DejaVuSans-46"/>
       <use x="95.410156" xlink:href="#DejaVuSans-53"/>
      </g>
     </g>
    </g>
    <g id="ytick_5">
     <g id="line2d_10">
      <g>
       <use style="stroke:#000000;stroke-width:0.8;" x="122.94" xlink:href="#ma6a35e6ca9" y="136.284231"/>
      </g>
     </g>
     <g id="text_11">
      <!-- 2.0 -->
      <g transform="translate(100.036875 140.08345)scale(0.1 -0.1)">
       <use xlink:href="#DejaVuSans-50"/>
       <use x="63.623047" xlink:href="#DejaVuSans-46"/>
       <use x="95.410156" xlink:href="#DejaVuSans-48"/>
      </g>
     </g>
    </g>
    <g id="ytick_6">
     <g id="line2d_11">
      <g>
       <use style="stroke:#000000;stroke-width:0.8;" x="122.94" xlink:href="#ma6a35e6ca9" y="62.390359"/>
      </g>
     </g>
     <g id="text_12">
      <!-- 2.5 -->
      <g transform="translate(100.036875 66.189578)scale(0.1 -0.1)">
       <use xlink:href="#DejaVuSans-50"/>
       <use x="63.623047" xlink:href="#DejaVuSans-46"/>
       <use x="95.410156" xlink:href="#DejaVuSans-53"/>
      </g>
     </g>
    </g>
    <g id="text_13">
     <!-- time -->
     <defs>
      <path d="M 18.3125 70.21875 
L 18.3125 54.6875 
L 36.8125 54.6875 
L 36.8125 47.703125 
L 18.3125 47.703125 
L 18.3125 18.015625 
Q 18.3125 11.328125 20.140625 9.421875 
Q 21.96875 7.515625 27.59375 7.515625 
L 36.8125 7.515625 
L 36.8125 0 
L 27.59375 0 
Q 17.1875 0 13.234375 3.875 
Q 9.28125 7.765625 9.28125 18.015625 
L 9.28125 47.703125 
L 2.6875 47.703125 
L 2.6875 54.6875 
L 9.28125 54.6875 
L 9.28125 70.21875 
z
" id="DejaVuSans-116"/>
      <path d="M 52 44.1875 
Q 55.375 50.25 60.0625 53.125 
Q 64.75 56 71.09375 56 
Q 79.640625 56 84.28125 50.015625 
Q 88.921875 44.046875 88.921875 33.015625 
L 88.921875 0 
L 79.890625 0 
L 79.890625 32.71875 
Q 79.890625 40.578125 77.09375 44.375 
Q 74.3125 48.1875 68.609375 48.1875 
Q 61.625 48.1875 57.5625 43.546875 
Q 53.515625 38.921875 53.515625 30.90625 
L 53.515625 0 
L 44.484375 0 
L 44.484375 32.71875 
Q 44.484375 40.625 41.703125 44.40625 
Q 38.921875 48.1875 33.109375 48.1875 
Q 26.21875 48.1875 22.15625 43.53125 
Q 18.109375 38.875 18.109375 30.90625 
L 18.109375 0 
L 9.078125 0 
L 9.078125 54.6875 
L 18.109375 54.6875 
L 18.109375 46.1875 
Q 21.1875 51.21875 25.484375 53.609375 
Q 29.78125 56 35.6875 56 
Q 41.65625 56 45.828125 52.96875 
Q 50 49.953125 52 44.1875 
z
" id="DejaVuSans-109"/>
     </defs>
     <g transform="translate(93.957187 265.088894)rotate(-90)scale(0.1 -0.1)">
      <use xlink:href="#DejaVuSans-116"/>
      <use x="39.208984" xlink:href="#DejaVuSans-105"/>
      <use x="66.992188" xlink:href="#DejaVuSans-109"/>
      <use x="164.404297" xlink:href="#DejaVuSans-101"/>
     </g>
    </g>
   </g>
   <g id="line2d_12">
    <path clip-path="url(#p453faea973)" d="M 196.876116 429.162507 
L 201.449484 429.162507 
L 201.449484 428.719951 
L 196.876116 428.719951 
L 196.876116 429.162507 
" style="fill:none;stroke:#000000;stroke-linecap:square;"/>
   </g>
   <g id="line2d_13">
    <path clip-path="url(#p453faea973)" d="M 199.1628 429.162507 
L 199.1628 429.6888 
" style="fill:none;stroke:#000000;stroke-linecap:square;"/>
   </g>
   <g id="line2d_14">
    <path clip-path="url(#p453faea973)" d="M 199.1628 428.719951 
L 199.1628 428.3698 
" style="fill:none;stroke:#000000;stroke-linecap:square;"/>
   </g>
   <g id="line2d_15">
    <path clip-path="url(#p453faea973)" d="M 198.019458 429.6888 
L 200.306142 429.6888 
" style="fill:none;stroke:#000000;stroke-linecap:square;"/>
   </g>
   <g id="line2d_16">
    <path clip-path="url(#p453faea973)" d="M 198.019458 428.3698 
L 200.306142 428.3698 
" style="fill:none;stroke:#000000;stroke-linecap:square;"/>
   </g>
   <g id="line2d_17"/>
   <g id="line2d_18">
    <path clip-path="url(#p453faea973)" d="M 349.321716 426.16745 
L 353.895084 426.16745 
L 353.895084 425.685061 
L 349.321716 425.685061 
L 349.321716 426.16745 
" style="fill:none;stroke:#000000;stroke-linecap:square;"/>
   </g>
   <g id="line2d_19">
    <path clip-path="url(#p453faea973)" d="M 351.6084 426.16745 
L 351.6084 426.807958 
" style="fill:none;stroke:#000000;stroke-linecap:square;"/>
   </g>
   <g id="line2d_20">
    <path clip-path="url(#p453faea973)" d="M 351.6084 425.685061 
L 351.6084 424.979385 
" style="fill:none;stroke:#000000;stroke-linecap:square;"/>
   </g>
   <g id="line2d_21">
    <path clip-path="url(#p453faea973)" d="M 350.465058 426.807958 
L 352.751742 426.807958 
" style="fill:none;stroke:#000000;stroke-linecap:square;"/>
   </g>
   <g id="line2d_22">
    <path clip-path="url(#p453faea973)" d="M 350.465058 424.979385 
L 352.751742 424.979385 
" style="fill:none;stroke:#000000;stroke-linecap:square;"/>
   </g>
   <g id="line2d_23">
    <defs>
     <path d="M 0 3 
C 0.795609 3 1.55874 2.683901 2.12132 2.12132 
C 2.683901 1.55874 3 0.795609 3 0 
C 3 -0.795609 2.683901 -1.55874 2.12132 -2.12132 
C 1.55874 -2.683901 0.795609 -3 0 -3 
C -0.795609 -3 -1.55874 -2.683901 -2.12132 -2.12132 
C -2.683901 -1.55874 -3 -0.795609 -3 0 
C -3 0.795609 -2.683901 1.55874 -2.12132 2.12132 
C -1.55874 2.683901 -0.795609 3 0 3 
z
" id="m48220e459f" style="stroke:#000000;"/>
    </defs>
    <g clip-path="url(#p453faea973)">
     <use style="fill-opacity:0;stroke:#000000;" x="351.6084" xlink:href="#m48220e459f" y="424.5721"/>
    </g>
   </g>
   <g id="line2d_24">
    <path clip-path="url(#p453faea973)" d="M 501.767316 421.79507 
L 506.340684 421.79507 
L 506.340684 421.098132 
L 501.767316 421.098132 
L 501.767316 421.79507 
" style="fill:none;stroke:#000000;stroke-linecap:square;"/>
   </g>
   <g id="line2d_25">
    <path clip-path="url(#p453faea973)" d="M 504.054 421.79507 
L 504.054 422.700786 
" style="fill:none;stroke:#000000;stroke-linecap:square;"/>
   </g>
   <g id="line2d_26">
    <path clip-path="url(#p453faea973)" d="M 504.054 421.098132 
L 504.054 420.332125 
" style="fill:none;stroke:#000000;stroke-linecap:square;"/>
   </g>
   <g id="line2d_27">
    <path clip-path="url(#p453faea973)" d="M 502.910658 422.700786 
L 505.197342 422.700786 
" style="fill:none;stroke:#000000;stroke-linecap:square;"/>
   </g>
   <g id="line2d_28">
    <path clip-path="url(#p453faea973)" d="M 502.910658 420.332125 
L 505.197342 420.332125 
" style="fill:none;stroke:#000000;stroke-linecap:square;"/>
   </g>
   <g id="line2d_29"/>
   <g id="line2d_30">
    <path clip-path="url(#p453faea973)" d="M 654.212916 416.027 
L 658.786284 416.027 
L 658.786284 415.051827 
L 654.212916 415.051827 
L 654.212916 416.027 
" style="fill:none;stroke:#000000;stroke-linecap:square;"/>
   </g>
   <g id="line2d_31">
    <path clip-path="url(#p453faea973)" d="M 656.4996 416.027 
L 656.4996 416.706549 
" style="fill:none;stroke:#000000;stroke-linecap:square;"/>
   </g>
   <g id="line2d_32">
    <path clip-path="url(#p453faea973)" d="M 656.4996 415.051827 
L 656.4996 413.667571 
" style="fill:none;stroke:#000000;stroke-linecap:square;"/>
   </g>
   <g id="line2d_33">
    <path clip-path="url(#p453faea973)" d="M 655.356258 416.706549 
L 657.642942 416.706549 
" style="fill:none;stroke:#000000;stroke-linecap:square;"/>
   </g>
   <g id="line2d_34">
    <path clip-path="url(#p453faea973)" d="M 655.356258 413.667571 
L 657.642942 413.667571 
" style="fill:none;stroke:#000000;stroke-linecap:square;"/>
   </g>
   <g id="line2d_35">
    <g clip-path="url(#p453faea973)">
     <use style="fill-opacity:0;stroke:#000000;" x="656.4996" xlink:href="#m48220e459f" y="313.906235"/>
     <use style="fill-opacity:0;stroke:#000000;" x="656.4996" xlink:href="#m48220e459f" y="297.864217"/>
     <use style="fill-opacity:0;stroke:#000000;" x="656.4996" xlink:href="#m48220e459f" y="406.264061"/>
     <use style="fill-opacity:0;stroke:#000000;" x="656.4996" xlink:href="#m48220e459f" y="407.273166"/>
     <use style="fill-opacity:0;stroke:#000000;" x="656.4996" xlink:href="#m48220e459f" y="412.781719"/>
    </g>
   </g>
   <g id="line2d_36">
    <path clip-path="url(#p453faea973)" d="M 806.658516 408.776914 
L 811.231884 408.776914 
L 811.231884 407.860487 
L 806.658516 407.860487 
L 806.658516 408.776914 
" style="fill:none;stroke:#000000;stroke-linecap:square;"/>
   </g>
   <g id="line2d_37">
    <path clip-path="url(#p453faea973)" d="M 808.9452 408.776914 
L 808.9452 409.784988 
" style="fill:none;stroke:#000000;stroke-linecap:square;"/>
   </g>
   <g id="line2d_38">
    <path clip-path="url(#p453faea973)" d="M 808.9452 407.860487 
L 808.9452 406.885507 
" style="fill:none;stroke:#000000;stroke-linecap:square;"/>
   </g>
   <g id="line2d_39">
    <path clip-path="url(#p453faea973)" d="M 807.801858 409.784988 
L 810.088542 409.784988 
" style="fill:none;stroke:#000000;stroke-linecap:square;"/>
   </g>
   <g id="line2d_40">
    <path clip-path="url(#p453faea973)" d="M 807.801858 406.885507 
L 810.088542 406.885507 
" style="fill:none;stroke:#000000;stroke-linecap:square;"/>
   </g>
   <g id="line2d_41">
    <g clip-path="url(#p453faea973)">
     <use style="fill-opacity:0;stroke:#000000;" x="808.9452" xlink:href="#m48220e459f" y="404.927197"/>
    </g>
   </g>
   <g id="line2d_42">
    <path clip-path="url(#p453faea973)" d="M 199.1628 428.961313 
L 351.6084 425.893984 
L 504.054 421.427905 
L 656.4996 409.010275 
L 808.9452 408.264347 
" style="fill:none;stroke:#1f77b4;stroke-linecap:square;stroke-width:1.5;"/>
   </g>
   <g id="line2d_43">
    <path clip-path="url(#p453faea973)" d="M 196.876116 428.849292 
L 201.449484 428.849292 
L 201.449484 428.325641 
L 196.876116 428.325641 
L 196.876116 428.849292 
" style="fill:none;stroke:#000000;stroke-linecap:square;"/>
   </g>
   <g id="line2d_44">
    <path clip-path="url(#p453faea973)" d="M 199.1628 428.849292 
L 199.1628 429.186238 
" style="fill:none;stroke:#000000;stroke-linecap:square;"/>
   </g>
   <g id="line2d_45">
    <path clip-path="url(#p453faea973)" d="M 199.1628 428.325641 
L 199.1628 428.100109 
" style="fill:none;stroke:#000000;stroke-linecap:square;"/>
   </g>
   <g id="line2d_46">
    <path clip-path="url(#p453faea973)" d="M 198.019458 429.186238 
L 200.306142 429.186238 
" style="fill:none;stroke:#000000;stroke-linecap:square;"/>
   </g>
   <g id="line2d_47">
    <path clip-path="url(#p453faea973)" d="M 198.019458 428.100109 
L 200.306142 428.100109 
" style="fill:none;stroke:#000000;stroke-linecap:square;"/>
   </g>
   <g id="line2d_48"/>
   <g id="line2d_49">
    <path clip-path="url(#p453faea973)" d="M 349.321716 425.451609 
L 353.895084 425.451609 
L 353.895084 424.914816 
L 349.321716 424.914816 
L 349.321716 425.451609 
" style="fill:none;stroke:#000000;stroke-linecap:square;"/>
   </g>
   <g id="line2d_50">
    <path clip-path="url(#p453faea973)" d="M 351.6084 425.451609 
L 351.6084 426.062801 
" style="fill:none;stroke:#000000;stroke-linecap:square;"/>
   </g>
   <g id="line2d_51">
    <path clip-path="url(#p453faea973)" d="M 351.6084 424.914816 
L 351.6084 424.425838 
" style="fill:none;stroke:#000000;stroke-linecap:square;"/>
   </g>
   <g id="line2d_52">
    <path clip-path="url(#p453faea973)" d="M 350.465058 426.062801 
L 352.751742 426.062801 
" style="fill:none;stroke:#000000;stroke-linecap:square;"/>
   </g>
   <g id="line2d_53">
    <path clip-path="url(#p453faea973)" d="M 350.465058 424.425838 
L 352.751742 424.425838 
" style="fill:none;stroke:#000000;stroke-linecap:square;"/>
   </g>
   <g id="line2d_54">
    <g clip-path="url(#p453faea973)">
     <use style="fill-opacity:0;stroke:#000000;" x="351.6084" xlink:href="#m48220e459f" y="426.365543"/>
     <use style="fill-opacity:0;stroke:#000000;" x="351.6084" xlink:href="#m48220e459f" y="314.552416"/>
     <use style="fill-opacity:0;stroke:#000000;" x="351.6084" xlink:href="#m48220e459f" y="423.44411"/>
     <use style="fill-opacity:0;stroke:#000000;" x="351.6084" xlink:href="#m48220e459f" y="423.363668"/>
    </g>
   </g>
   <g id="line2d_55">
    <path clip-path="url(#p453faea973)" d="M 501.767316 420.167734 
L 506.340684 420.167734 
L 506.340684 419.409338 
L 501.767316 419.409338 
L 501.767316 420.167734 
" style="fill:none;stroke:#000000;stroke-linecap:square;"/>
   </g>
   <g id="line2d_56">
    <path clip-path="url(#p453faea973)" d="M 504.054 420.167734 
L 504.054 420.603367 
" style="fill:none;stroke:#000000;stroke-linecap:square;"/>
   </g>
   <g id="line2d_57">
    <path clip-path="url(#p453faea973)" d="M 504.054 419.409338 
L 504.054 418.800057 
" style="fill:none;stroke:#000000;stroke-linecap:square;"/>
   </g>
   <g id="line2d_58">
    <path clip-path="url(#p453faea973)" d="M 502.910658 420.603367 
L 505.197342 420.603367 
" style="fill:none;stroke:#000000;stroke-linecap:square;"/>
   </g>
   <g id="line2d_59">
    <path clip-path="url(#p453faea973)" d="M 502.910658 418.800057 
L 505.197342 418.800057 
" style="fill:none;stroke:#000000;stroke-linecap:square;"/>
   </g>
   <g id="line2d_60">
    <g clip-path="url(#p453faea973)">
     <use style="fill-opacity:0;stroke:#000000;" x="504.054" xlink:href="#m48220e459f" y="421.462052"/>
     <use style="fill-opacity:0;stroke:#000000;" x="504.054" xlink:href="#m48220e459f" y="418.188512"/>
    </g>
   </g>
   <g id="line2d_61">
    <path clip-path="url(#p453faea973)" d="M 654.212916 415.324275 
L 658.786284 415.324275 
L 658.786284 413.8001 
L 654.212916 413.8001 
L 654.212916 415.324275 
" style="fill:none;stroke:#000000;stroke-linecap:square;"/>
   </g>
   <g id="line2d_62">
    <path clip-path="url(#p453faea973)" d="M 656.4996 415.324275 
L 656.4996 415.827145 
" style="fill:none;stroke:#000000;stroke-linecap:square;"/>
   </g>
   <g id="line2d_63">
    <path clip-path="url(#p453faea973)" d="M 656.4996 413.8001 
L 656.4996 411.653836 
" style="fill:none;stroke:#000000;stroke-linecap:square;"/>
   </g>
   <g id="line2d_64">
    <path clip-path="url(#p453faea973)" d="M 655.356258 415.827145 
L 657.642942 415.827145 
" style="fill:none;stroke:#000000;stroke-linecap:square;"/>
   </g>
   <g id="line2d_65">
    <path clip-path="url(#p453faea973)" d="M 655.356258 411.653836 
L 657.642942 411.653836 
" style="fill:none;stroke:#000000;stroke-linecap:square;"/>
   </g>
   <g id="line2d_66">
    <g clip-path="url(#p453faea973)">
     <use style="fill-opacity:0;stroke:#000000;" x="656.4996" xlink:href="#m48220e459f" y="410.529969"/>
     <use style="fill-opacity:0;stroke:#000000;" x="656.4996" xlink:href="#m48220e459f" y="315.52315"/>
    </g>
   </g>
   <g id="line2d_67">
    <path clip-path="url(#p453faea973)" d="M 806.658516 403.706469 
L 811.231884 403.706469 
L 811.231884 402.653355 
L 806.658516 402.653355 
L 806.658516 403.706469 
" style="fill:none;stroke:#000000;stroke-linecap:square;"/>
   </g>
   <g id="line2d_68">
    <path clip-path="url(#p453faea973)" d="M 808.9452 403.706469 
L 808.9452 404.695948 
" style="fill:none;stroke:#000000;stroke-linecap:square;"/>
   </g>
   <g id="line2d_69">
    <path clip-path="url(#p453faea973)" d="M 808.9452 402.653355 
L 808.9452 401.241122 
" style="fill:none;stroke:#000000;stroke-linecap:square;"/>
   </g>
   <g id="line2d_70">
    <path clip-path="url(#p453faea973)" d="M 807.801858 404.695948 
L 810.088542 404.695948 
" style="fill:none;stroke:#000000;stroke-linecap:square;"/>
   </g>
   <g id="line2d_71">
    <path clip-path="url(#p453faea973)" d="M 807.801858 401.241122 
L 810.088542 401.241122 
" style="fill:none;stroke:#000000;stroke-linecap:square;"/>
   </g>
   <g id="line2d_72">
    <g clip-path="url(#p453faea973)">
     <use style="fill-opacity:0;stroke:#000000;" x="808.9452" xlink:href="#m48220e459f" y="292.981338"/>
    </g>
   </g>
   <g id="line2d_73">
    <path clip-path="url(#p453faea973)" d="M 199.1628 428.619818 
L 351.6084 422.118589 
L 504.054 419.771309 
L 656.4996 411.804239 
L 808.9452 400.209229 
" style="fill:none;stroke:#ff7f0e;stroke-linecap:square;stroke-width:1.5;"/>
   </g>
   <g id="line2d_74">
    <path clip-path="url(#p453faea973)" d="M 196.876116 428.80671 
L 201.449484 428.80671 
L 201.449484 428.175327 
L 196.876116 428.175327 
L 196.876116 428.80671 
" style="fill:none;stroke:#000000;stroke-linecap:square;"/>
   </g>
   <g id="line2d_75">
    <path clip-path="url(#p453faea973)" d="M 199.1628 428.80671 
L 199.1628 429.234264 
" style="fill:none;stroke:#000000;stroke-linecap:square;"/>
   </g>
   <g id="line2d_76">
    <path clip-path="url(#p453faea973)" d="M 199.1628 428.175327 
L 199.1628 427.510304 
" style="fill:none;stroke:#000000;stroke-linecap:square;"/>
   </g>
   <g id="line2d_77">
    <path clip-path="url(#p453faea973)" d="M 198.019458 429.234264 
L 200.306142 429.234264 
" style="fill:none;stroke:#000000;stroke-linecap:square;"/>
   </g>
   <g id="line2d_78">
    <path clip-path="url(#p453faea973)" d="M 198.019458 427.510304 
L 200.306142 427.510304 
" style="fill:none;stroke:#000000;stroke-linecap:square;"/>
   </g>
   <g id="line2d_79"/>
   <g id="line2d_80">
    <path clip-path="url(#p453faea973)" d="M 349.321716 425.955316 
L 353.895084 425.955316 
L 353.895084 425.10551 
L 349.321716 425.10551 
L 349.321716 425.955316 
" style="fill:none;stroke:#000000;stroke-linecap:square;"/>
   </g>
   <g id="line2d_81">
    <path clip-path="url(#p453faea973)" d="M 351.6084 425.955316 
L 351.6084 426.610957 
" style="fill:none;stroke:#000000;stroke-linecap:square;"/>
   </g>
   <g id="line2d_82">
    <path clip-path="url(#p453faea973)" d="M 351.6084 425.10551 
L 351.6084 424.469952 
" style="fill:none;stroke:#000000;stroke-linecap:square;"/>
   </g>
   <g id="line2d_83">
    <path clip-path="url(#p453faea973)" d="M 350.465058 426.610957 
L 352.751742 426.610957 
" style="fill:none;stroke:#000000;stroke-linecap:square;"/>
   </g>
   <g id="line2d_84">
    <path clip-path="url(#p453faea973)" d="M 350.465058 424.469952 
L 352.751742 424.469952 
" style="fill:none;stroke:#000000;stroke-linecap:square;"/>
   </g>
   <g id="line2d_85">
    <g clip-path="url(#p453faea973)">
     <use style="fill-opacity:0;stroke:#000000;" x="351.6084" xlink:href="#m48220e459f" y="427.27613"/>
    </g>
   </g>
   <g id="line2d_86">
    <path clip-path="url(#p453faea973)" d="M 501.767316 418.762064 
L 506.340684 418.762064 
L 506.340684 418.28629 
L 501.767316 418.28629 
L 501.767316 418.762064 
" style="fill:none;stroke:#000000;stroke-linecap:square;"/>
   </g>
   <g id="line2d_87">
    <path clip-path="url(#p453faea973)" d="M 504.054 418.762064 
L 504.054 419.275311 
" style="fill:none;stroke:#000000;stroke-linecap:square;"/>
   </g>
   <g id="line2d_88">
    <path clip-path="url(#p453faea973)" d="M 504.054 418.28629 
L 504.054 418.045985 
" style="fill:none;stroke:#000000;stroke-linecap:square;"/>
   </g>
   <g id="line2d_89">
    <path clip-path="url(#p453faea973)" d="M 502.910658 419.275311 
L 505.197342 419.275311 
" style="fill:none;stroke:#000000;stroke-linecap:square;"/>
   </g>
   <g id="line2d_90">
    <path clip-path="url(#p453faea973)" d="M 502.910658 418.045985 
L 505.197342 418.045985 
" style="fill:none;stroke:#000000;stroke-linecap:square;"/>
   </g>
   <g id="line2d_91">
    <g clip-path="url(#p453faea973)">
     <use style="fill-opacity:0;stroke:#000000;" x="504.054" xlink:href="#m48220e459f" y="419.484997"/>
     <use style="fill-opacity:0;stroke:#000000;" x="504.054" xlink:href="#m48220e459f" y="417.277467"/>
     <use style="fill-opacity:0;stroke:#000000;" x="504.054" xlink:href="#m48220e459f" y="417.405195"/>
     <use style="fill-opacity:0;stroke:#000000;" x="504.054" xlink:href="#m48220e459f" y="417.265699"/>
    </g>
   </g>
   <g id="line2d_92">
    <path clip-path="url(#p453faea973)" d="M 654.212916 395.289045 
L 658.786284 395.289045 
L 658.786284 392.682616 
L 654.212916 392.682616 
L 654.212916 395.289045 
" style="fill:none;stroke:#000000;stroke-linecap:square;"/>
   </g>
   <g id="line2d_93">
    <path clip-path="url(#p453faea973)" d="M 656.4996 395.289045 
L 656.4996 396.280232 
" style="fill:none;stroke:#000000;stroke-linecap:square;"/>
   </g>
   <g id="line2d_94">
    <path clip-path="url(#p453faea973)" d="M 656.4996 392.682616 
L 656.4996 389.045571 
" style="fill:none;stroke:#000000;stroke-linecap:square;"/>
   </g>
   <g id="line2d_95">
    <path clip-path="url(#p453faea973)" d="M 655.356258 396.280232 
L 657.642942 396.280232 
" style="fill:none;stroke:#000000;stroke-linecap:square;"/>
   </g>
   <g id="line2d_96">
    <path clip-path="url(#p453faea973)" d="M 655.356258 389.045571 
L 657.642942 389.045571 
" style="fill:none;stroke:#000000;stroke-linecap:square;"/>
   </g>
   <g id="line2d_97"/>
   <g id="line2d_98">
    <path clip-path="url(#p453faea973)" d="M 806.658516 403.267454 
L 811.231884 403.267454 
L 811.231884 402.107595 
L 806.658516 402.107595 
L 806.658516 403.267454 
" style="fill:none;stroke:#000000;stroke-linecap:square;"/>
   </g>
   <g id="line2d_99">
    <path clip-path="url(#p453faea973)" d="M 808.9452 403.267454 
L 808.9452 403.983137 
" style="fill:none;stroke:#000000;stroke-linecap:square;"/>
   </g>
   <g id="line2d_100">
    <path clip-path="url(#p453faea973)" d="M 808.9452 402.107595 
L 808.9452 400.792717 
" style="fill:none;stroke:#000000;stroke-linecap:square;"/>
   </g>
   <g id="line2d_101">
    <path clip-path="url(#p453faea973)" d="M 807.801858 403.983137 
L 810.088542 403.983137 
" style="fill:none;stroke:#000000;stroke-linecap:square;"/>
   </g>
   <g id="line2d_102">
    <path clip-path="url(#p453faea973)" d="M 807.801858 400.792717 
L 810.088542 400.792717 
" style="fill:none;stroke:#000000;stroke-linecap:square;"/>
   </g>
   <g id="line2d_103">
    <g clip-path="url(#p453faea973)">
     <use style="fill-opacity:0;stroke:#000000;" x="808.9452" xlink:href="#m48220e459f" y="399.280769"/>
     <use style="fill-opacity:0;stroke:#000000;" x="808.9452" xlink:href="#m48220e459f" y="299.881511"/>
     <use style="fill-opacity:0;stroke:#000000;" x="808.9452" xlink:href="#m48220e459f" y="393.353867"/>
     <use style="fill-opacity:0;stroke:#000000;" x="808.9452" xlink:href="#m48220e459f" y="395.853145"/>
    </g>
   </g>
   <g id="line2d_104">
    <path clip-path="url(#p453faea973)" d="M 199.1628 428.49542 
L 351.6084 425.483083 
L 504.054 418.478945 
L 656.4996 393.701654 
L 808.9452 399.43758 
" style="fill:none;stroke:#2ca02c;stroke-linecap:square;stroke-width:1.5;"/>
   </g>
   <g id="line2d_105">
    <path clip-path="url(#p453faea973)" d="M 196.876116 428.816355 
L 201.449484 428.816355 
L 201.449484 428.336705 
L 196.876116 428.336705 
L 196.876116 428.816355 
" style="fill:none;stroke:#000000;stroke-linecap:square;"/>
   </g>
   <g id="line2d_106">
    <path clip-path="url(#p453faea973)" d="M 199.1628 428.816355 
L 199.1628 429.237611 
" style="fill:none;stroke:#000000;stroke-linecap:square;"/>
   </g>
   <g id="line2d_107">
    <path clip-path="url(#p453faea973)" d="M 199.1628 428.336705 
L 199.1628 427.971746 
" style="fill:none;stroke:#000000;stroke-linecap:square;"/>
   </g>
   <g id="line2d_108">
    <path clip-path="url(#p453faea973)" d="M 198.019458 429.237611 
L 200.306142 429.237611 
" style="fill:none;stroke:#000000;stroke-linecap:square;"/>
   </g>
   <g id="line2d_109">
    <path clip-path="url(#p453faea973)" d="M 198.019458 427.971746 
L 200.306142 427.971746 
" style="fill:none;stroke:#000000;stroke-linecap:square;"/>
   </g>
   <g id="line2d_110">
    <g clip-path="url(#p453faea973)">
     <use style="fill-opacity:0;stroke:#000000;" x="199.1628" xlink:href="#m48220e459f" y="427.608047"/>
    </g>
   </g>
   <g id="line2d_111">
    <path clip-path="url(#p453faea973)" d="M 349.321716 425.437162 
L 353.895084 425.437162 
L 353.895084 424.859955 
L 349.321716 424.859955 
L 349.321716 425.437162 
" style="fill:none;stroke:#000000;stroke-linecap:square;"/>
   </g>
   <g id="line2d_112">
    <path clip-path="url(#p453faea973)" d="M 351.6084 425.437162 
L 351.6084 426.193524 
" style="fill:none;stroke:#000000;stroke-linecap:square;"/>
   </g>
   <g id="line2d_113">
    <path clip-path="url(#p453faea973)" d="M 351.6084 424.859955 
L 351.6084 424.338877 
" style="fill:none;stroke:#000000;stroke-linecap:square;"/>
   </g>
   <g id="line2d_114">
    <path clip-path="url(#p453faea973)" d="M 350.465058 426.193524 
L 352.751742 426.193524 
" style="fill:none;stroke:#000000;stroke-linecap:square;"/>
   </g>
   <g id="line2d_115">
    <path clip-path="url(#p453faea973)" d="M 350.465058 424.338877 
L 352.751742 424.338877 
" style="fill:none;stroke:#000000;stroke-linecap:square;"/>
   </g>
   <g id="line2d_116"/>
   <g id="line2d_117">
    <path clip-path="url(#p453faea973)" d="M 501.767316 418.55185 
L 506.340684 418.55185 
L 506.340684 417.975197 
L 501.767316 417.975197 
L 501.767316 418.55185 
" style="fill:none;stroke:#000000;stroke-linecap:square;"/>
   </g>
   <g id="line2d_118">
    <path clip-path="url(#p453faea973)" d="M 504.054 418.55185 
L 504.054 419.192121 
" style="fill:none;stroke:#000000;stroke-linecap:square;"/>
   </g>
   <g id="line2d_119">
    <path clip-path="url(#p453faea973)" d="M 504.054 417.975197 
L 504.054 417.140014 
" style="fill:none;stroke:#000000;stroke-linecap:square;"/>
   </g>
   <g id="line2d_120">
    <path clip-path="url(#p453faea973)" d="M 502.910658 419.192121 
L 505.197342 419.192121 
" style="fill:none;stroke:#000000;stroke-linecap:square;"/>
   </g>
   <g id="line2d_121">
    <path clip-path="url(#p453faea973)" d="M 502.910658 417.140014 
L 505.197342 417.140014 
" style="fill:none;stroke:#000000;stroke-linecap:square;"/>
   </g>
   <g id="line2d_122">
    <g clip-path="url(#p453faea973)">
     <use style="fill-opacity:0;stroke:#000000;" x="504.054" xlink:href="#m48220e459f" y="416.001384"/>
    </g>
   </g>
   <g id="line2d_123">
    <path clip-path="url(#p453faea973)" d="M 654.212916 388.861977 
L 658.786284 388.861977 
L 658.786284 387.437641 
L 654.212916 387.437641 
L 654.212916 388.861977 
" style="fill:none;stroke:#000000;stroke-linecap:square;"/>
   </g>
   <g id="line2d_124">
    <path clip-path="url(#p453faea973)" d="M 656.4996 388.861977 
L 656.4996 390.128987 
" style="fill:none;stroke:#000000;stroke-linecap:square;"/>
   </g>
   <g id="line2d_125">
    <path clip-path="url(#p453faea973)" d="M 656.4996 387.437641 
L 656.4996 385.832953 
" style="fill:none;stroke:#000000;stroke-linecap:square;"/>
   </g>
   <g id="line2d_126">
    <path clip-path="url(#p453faea973)" d="M 655.356258 390.128987 
L 657.642942 390.128987 
" style="fill:none;stroke:#000000;stroke-linecap:square;"/>
   </g>
   <g id="line2d_127">
    <path clip-path="url(#p453faea973)" d="M 655.356258 385.832953 
L 657.642942 385.832953 
" style="fill:none;stroke:#000000;stroke-linecap:square;"/>
   </g>
   <g id="line2d_128">
    <g clip-path="url(#p453faea973)">
     <use style="fill-opacity:0;stroke:#000000;" x="656.4996" xlink:href="#m48220e459f" y="382.967086"/>
     <use style="fill-opacity:0;stroke:#000000;" x="656.4996" xlink:href="#m48220e459f" y="383.701003"/>
     <use style="fill-opacity:0;stroke:#000000;" x="656.4996" xlink:href="#m48220e459f" y="304.413058"/>
     <use style="fill-opacity:0;stroke:#000000;" x="656.4996" xlink:href="#m48220e459f" y="379.904994"/>
    </g>
   </g>
   <g id="line2d_129">
    <path clip-path="url(#p453faea973)" d="M 806.658516 116.134548 
L 811.231884 116.134548 
L 811.231884 101.686753 
L 806.658516 101.686753 
L 806.658516 116.134548 
" style="fill:none;stroke:#000000;stroke-linecap:square;"/>
   </g>
   <g id="line2d_130">
    <path clip-path="url(#p453faea973)" d="M 808.9452 116.134548 
L 808.9452 120.081435 
" style="fill:none;stroke:#000000;stroke-linecap:square;"/>
   </g>
   <g id="line2d_131">
    <path clip-path="url(#p453faea973)" d="M 808.9452 101.686753 
L 808.9452 87.473696 
" style="fill:none;stroke:#000000;stroke-linecap:square;"/>
   </g>
   <g id="line2d_132">
    <path clip-path="url(#p453faea973)" d="M 807.801858 120.081435 
L 810.088542 120.081435 
" style="fill:none;stroke:#000000;stroke-linecap:square;"/>
   </g>
   <g id="line2d_133">
    <path clip-path="url(#p453faea973)" d="M 807.801858 87.473696 
L 810.088542 87.473696 
" style="fill:none;stroke:#000000;stroke-linecap:square;"/>
   </g>
   <g id="line2d_134">
    <g clip-path="url(#p453faea973)">
     <use style="fill-opacity:0;stroke:#000000;" x="808.9452" xlink:href="#m48220e459f" y="77.8968"/>
    </g>
   </g>
   <g id="line2d_135">
    <path clip-path="url(#p453faea973)" d="M 199.1628 428.569272 
L 351.6084 425.147898 
L 504.054 418.199245 
L 656.4996 385.589207 
L 808.9452 106.28123 
" style="fill:none;stroke:#d62728;stroke-linecap:square;stroke-width:1.5;"/>
   </g>
   <g id="line2d_136">
    <path clip-path="url(#p453faea973)" d="M 196.876116 428.629405 
L 201.449484 428.629405 
L 201.449484 428.301858 
L 196.876116 428.301858 
L 196.876116 428.629405 
" style="fill:none;stroke:#000000;stroke-linecap:square;"/>
   </g>
   <g id="line2d_137">
    <path clip-path="url(#p453faea973)" d="M 199.1628 428.629405 
L 199.1628 429.024579 
" style="fill:none;stroke:#000000;stroke-linecap:square;"/>
   </g>
   <g id="line2d_138">
    <path clip-path="url(#p453faea973)" d="M 199.1628 428.301858 
L 199.1628 427.985312 
" style="fill:none;stroke:#000000;stroke-linecap:square;"/>
   </g>
   <g id="line2d_139">
    <path clip-path="url(#p453faea973)" d="M 198.019458 429.024579 
L 200.306142 429.024579 
" style="fill:none;stroke:#000000;stroke-linecap:square;"/>
   </g>
   <g id="line2d_140">
    <path clip-path="url(#p453faea973)" d="M 198.019458 427.985312 
L 200.306142 427.985312 
" style="fill:none;stroke:#000000;stroke-linecap:square;"/>
   </g>
   <g id="line2d_141">
    <g clip-path="url(#p453faea973)">
     <use style="fill-opacity:0;stroke:#000000;" x="199.1628" xlink:href="#m48220e459f" y="429.134478"/>
     <use style="fill-opacity:0;stroke:#000000;" x="199.1628" xlink:href="#m48220e459f" y="429.3288"/>
     <use style="fill-opacity:0;stroke:#000000;" x="199.1628" xlink:href="#m48220e459f" y="427.537013"/>
    </g>
   </g>
   <g id="line2d_142">
    <path clip-path="url(#p453faea973)" d="M 349.321716 425.300291 
L 353.895084 425.300291 
L 353.895084 424.590017 
L 349.321716 424.590017 
L 349.321716 425.300291 
" style="fill:none;stroke:#000000;stroke-linecap:square;"/>
   </g>
   <g id="line2d_143">
    <path clip-path="url(#p453faea973)" d="M 351.6084 425.300291 
L 351.6084 426.170762 
" style="fill:none;stroke:#000000;stroke-linecap:square;"/>
   </g>
   <g id="line2d_144">
    <path clip-path="url(#p453faea973)" d="M 351.6084 424.590017 
L 351.6084 424.135181 
" style="fill:none;stroke:#000000;stroke-linecap:square;"/>
   </g>
   <g id="line2d_145">
    <path clip-path="url(#p453faea973)" d="M 350.465058 426.170762 
L 352.751742 426.170762 
" style="fill:none;stroke:#000000;stroke-linecap:square;"/>
   </g>
   <g id="line2d_146">
    <path clip-path="url(#p453faea973)" d="M 350.465058 424.135181 
L 352.751742 424.135181 
" style="fill:none;stroke:#000000;stroke-linecap:square;"/>
   </g>
   <g id="line2d_147"/>
   <g id="line2d_148">
    <path clip-path="url(#p453faea973)" d="M 501.767316 418.954837 
L 506.340684 418.954837 
L 506.340684 418.068095 
L 501.767316 418.068095 
L 501.767316 418.954837 
" style="fill:none;stroke:#000000;stroke-linecap:square;"/>
   </g>
   <g id="line2d_149">
    <path clip-path="url(#p453faea973)" d="M 504.054 418.954837 
L 504.054 419.281019 
" style="fill:none;stroke:#000000;stroke-linecap:square;"/>
   </g>
   <g id="line2d_150">
    <path clip-path="url(#p453faea973)" d="M 504.054 418.068095 
L 504.054 416.795518 
" style="fill:none;stroke:#000000;stroke-linecap:square;"/>
   </g>
   <g id="line2d_151">
    <path clip-path="url(#p453faea973)" d="M 502.910658 419.281019 
L 505.197342 419.281019 
" style="fill:none;stroke:#000000;stroke-linecap:square;"/>
   </g>
   <g id="line2d_152">
    <path clip-path="url(#p453faea973)" d="M 502.910658 416.795518 
L 505.197342 416.795518 
" style="fill:none;stroke:#000000;stroke-linecap:square;"/>
   </g>
   <g id="line2d_153">
    <g clip-path="url(#p453faea973)">
     <use style="fill-opacity:0;stroke:#000000;" x="504.054" xlink:href="#m48220e459f" y="416.660743"/>
    </g>
   </g>
   <g id="line2d_154">
    <path clip-path="url(#p453faea973)" d="M 654.212916 400.296868 
L 658.786284 400.296868 
L 658.786284 399.7292 
L 654.212916 399.7292 
L 654.212916 400.296868 
" style="fill:none;stroke:#000000;stroke-linecap:square;"/>
   </g>
   <g id="line2d_155">
    <path clip-path="url(#p453faea973)" d="M 656.4996 400.296868 
L 656.4996 400.79765 
" style="fill:none;stroke:#000000;stroke-linecap:square;"/>
   </g>
   <g id="line2d_156">
    <path clip-path="url(#p453faea973)" d="M 656.4996 399.7292 
L 656.4996 399.066996 
" style="fill:none;stroke:#000000;stroke-linecap:square;"/>
   </g>
   <g id="line2d_157">
    <path clip-path="url(#p453faea973)" d="M 655.356258 400.79765 
L 657.642942 400.79765 
" style="fill:none;stroke:#000000;stroke-linecap:square;"/>
   </g>
   <g id="line2d_158">
    <path clip-path="url(#p453faea973)" d="M 655.356258 399.066996 
L 657.642942 399.066996 
" style="fill:none;stroke:#000000;stroke-linecap:square;"/>
   </g>
   <g id="line2d_159">
    <g clip-path="url(#p453faea973)">
     <use style="fill-opacity:0;stroke:#000000;" x="656.4996" xlink:href="#m48220e459f" y="308.809759"/>
    </g>
   </g>
   <g id="line2d_160">
    <path clip-path="url(#p453faea973)" d="M 806.658516 371.752548 
L 811.231884 371.752548 
L 811.231884 370.764673 
L 806.658516 370.764673 
L 806.658516 371.752548 
" style="fill:none;stroke:#000000;stroke-linecap:square;"/>
   </g>
   <g id="line2d_161">
    <path clip-path="url(#p453faea973)" d="M 808.9452 371.752548 
L 808.9452 372.249834 
" style="fill:none;stroke:#000000;stroke-linecap:square;"/>
   </g>
   <g id="line2d_162">
    <path clip-path="url(#p453faea973)" d="M 808.9452 370.764673 
L 808.9452 369.806897 
" style="fill:none;stroke:#000000;stroke-linecap:square;"/>
   </g>
   <g id="line2d_163">
    <path clip-path="url(#p453faea973)" d="M 807.801858 372.249834 
L 810.088542 372.249834 
" style="fill:none;stroke:#000000;stroke-linecap:square;"/>
   </g>
   <g id="line2d_164">
    <path clip-path="url(#p453faea973)" d="M 807.801858 369.806897 
L 810.088542 369.806897 
" style="fill:none;stroke:#000000;stroke-linecap:square;"/>
   </g>
   <g id="line2d_165">
    <g clip-path="url(#p453faea973)">
     <use style="fill-opacity:0;stroke:#000000;" x="808.9452" xlink:href="#m48220e459f" y="259.063408"/>
     <use style="fill-opacity:0;stroke:#000000;" x="808.9452" xlink:href="#m48220e459f" y="364.413"/>
     <use style="fill-opacity:0;stroke:#000000;" x="808.9452" xlink:href="#m48220e459f" y="367.667407"/>
    </g>
   </g>
   <g id="line2d_166"/>
   <g id="line2d_167">
    <path clip-path="url(#p453faea973)" d="M 196.876116 428.977856 
L 201.449484 428.977856 
" style="fill:none;stroke:#ff7f0e;stroke-linecap:square;"/>
   </g>
   <g id="line2d_168">
    <path clip-path="url(#p453faea973)" d="M 349.321716 425.947864 
L 353.895084 425.947864 
" style="fill:none;stroke:#ff7f0e;stroke-linecap:square;"/>
   </g>
   <g id="line2d_169">
    <path clip-path="url(#p453faea973)" d="M 501.767316 421.322238 
L 506.340684 421.322238 
" style="fill:none;stroke:#ff7f0e;stroke-linecap:square;"/>
   </g>
   <g id="line2d_170">
    <path clip-path="url(#p453faea973)" d="M 654.212916 415.634901 
L 658.786284 415.634901 
" style="fill:none;stroke:#ff7f0e;stroke-linecap:square;"/>
   </g>
   <g id="line2d_171">
    <path clip-path="url(#p453faea973)" d="M 806.658516 408.194113 
L 811.231884 408.194113 
" style="fill:none;stroke:#ff7f0e;stroke-linecap:square;"/>
   </g>
   <g id="line2d_172">
    <path clip-path="url(#p453faea973)" d="M 196.876116 428.688839 
L 201.449484 428.688839 
" style="fill:none;stroke:#ff7f0e;stroke-linecap:square;"/>
   </g>
   <g id="line2d_173">
    <path clip-path="url(#p453faea973)" d="M 349.321716 425.195624 
L 353.895084 425.195624 
" style="fill:none;stroke:#ff7f0e;stroke-linecap:square;"/>
   </g>
   <g id="line2d_174">
    <path clip-path="url(#p453faea973)" d="M 501.767316 419.707931 
L 506.340684 419.707931 
" style="fill:none;stroke:#ff7f0e;stroke-linecap:square;"/>
   </g>
   <g id="line2d_175">
    <path clip-path="url(#p453faea973)" d="M 654.212916 414.927041 
L 658.786284 414.927041 
" style="fill:none;stroke:#ff7f0e;stroke-linecap:square;"/>
   </g>
   <g id="line2d_176">
    <path clip-path="url(#p453faea973)" d="M 806.658516 403.354027 
L 811.231884 403.354027 
" style="fill:none;stroke:#ff7f0e;stroke-linecap:square;"/>
   </g>
   <g id="line2d_177">
    <path clip-path="url(#p453faea973)" d="M 196.876116 428.495079 
L 201.449484 428.495079 
" style="fill:none;stroke:#ff7f0e;stroke-linecap:square;"/>
   </g>
   <g id="line2d_178">
    <path clip-path="url(#p453faea973)" d="M 349.321716 425.341076 
L 353.895084 425.341076 
" style="fill:none;stroke:#ff7f0e;stroke-linecap:square;"/>
   </g>
   <g id="line2d_179">
    <path clip-path="url(#p453faea973)" d="M 501.767316 418.461181 
L 506.340684 418.461181 
" style="fill:none;stroke:#ff7f0e;stroke-linecap:square;"/>
   </g>
   <g id="line2d_180">
    <path clip-path="url(#p453faea973)" d="M 654.212916 393.886625 
L 658.786284 393.886625 
" style="fill:none;stroke:#ff7f0e;stroke-linecap:square;"/>
   </g>
   <g id="line2d_181">
    <path clip-path="url(#p453faea973)" d="M 806.658516 402.950917 
L 811.231884 402.950917 
" style="fill:none;stroke:#ff7f0e;stroke-linecap:square;"/>
   </g>
   <g id="line2d_182">
    <path clip-path="url(#p453faea973)" d="M 196.876116 428.542471 
L 201.449484 428.542471 
" style="fill:none;stroke:#ff7f0e;stroke-linecap:square;"/>
   </g>
   <g id="line2d_183">
    <path clip-path="url(#p453faea973)" d="M 349.321716 425.144251 
L 353.895084 425.144251 
" style="fill:none;stroke:#ff7f0e;stroke-linecap:square;"/>
   </g>
   <g id="line2d_184">
    <path clip-path="url(#p453faea973)" d="M 501.767316 418.241312 
L 506.340684 418.241312 
" style="fill:none;stroke:#ff7f0e;stroke-linecap:square;"/>
   </g>
   <g id="line2d_185">
    <path clip-path="url(#p453faea973)" d="M 654.212916 388.563622 
L 658.786284 388.563622 
" style="fill:none;stroke:#ff7f0e;stroke-linecap:square;"/>
   </g>
   <g id="line2d_186">
    <path clip-path="url(#p453faea973)" d="M 806.658516 107.064124 
L 811.231884 107.064124 
" style="fill:none;stroke:#ff7f0e;stroke-linecap:square;"/>
   </g>
   <g id="line2d_187">
    <path clip-path="url(#p453faea973)" d="M 196.876116 428.413721 
L 201.449484 428.413721 
" style="fill:none;stroke:#ff7f0e;stroke-linecap:square;"/>
   </g>
   <g id="line2d_188">
    <path clip-path="url(#p453faea973)" d="M 349.321716 425.11305 
L 353.895084 425.11305 
" style="fill:none;stroke:#ff7f0e;stroke-linecap:square;"/>
   </g>
   <g id="line2d_189">
    <path clip-path="url(#p453faea973)" d="M 501.767316 418.568367 
L 506.340684 418.568367 
" style="fill:none;stroke:#ff7f0e;stroke-linecap:square;"/>
   </g>
   <g id="line2d_190">
    <path clip-path="url(#p453faea973)" d="M 654.212916 400.148333 
L 658.786284 400.148333 
" style="fill:none;stroke:#ff7f0e;stroke-linecap:square;"/>
   </g>
   <g id="line2d_191">
    <path clip-path="url(#p453faea973)" d="M 806.658516 371.338436 
L 811.231884 371.338436 
" style="fill:none;stroke:#ff7f0e;stroke-linecap:square;"/>
   </g>
   <g id="patch_3">
    <path d="M 122.94 447.2784 
L 122.94 60.3072 
" style="fill:none;stroke:#000000;stroke-linecap:square;stroke-linejoin:miter;stroke-width:0.8;"/>
   </g>
   <g id="patch_4">
    <path d="M 885.168 447.2784 
L 885.168 60.3072 
" style="fill:none;stroke:#000000;stroke-linecap:square;stroke-linejoin:miter;stroke-width:0.8;"/>
   </g>
   <g id="patch_5">
    <path d="M 122.94 447.2784 
L 885.168 447.2784 
" style="fill:none;stroke:#000000;stroke-linecap:square;stroke-linejoin:miter;stroke-width:0.8;"/>
   </g>
   <g id="patch_6">
    <path d="M 122.94 60.3072 
L 885.168 60.3072 
" style="fill:none;stroke:#000000;stroke-linecap:square;stroke-linejoin:miter;stroke-width:0.8;"/>
   </g>
   <g id="text_14">
    <!-- Duration of a 5 by x puzzle -->
    <defs>
     <path d="M 19.671875 64.796875 
L 19.671875 8.109375 
L 31.59375 8.109375 
Q 46.6875 8.109375 53.6875 14.9375 
Q 60.6875 21.78125 60.6875 36.53125 
Q 60.6875 51.171875 53.6875 57.984375 
Q 46.6875 64.796875 31.59375 64.796875 
z
M 9.8125 72.90625 
L 30.078125 72.90625 
Q 51.265625 72.90625 61.171875 64.09375 
Q 71.09375 55.28125 71.09375 36.53125 
Q 71.09375 17.671875 61.125 8.828125 
Q 51.171875 0 30.078125 0 
L 9.8125 0 
z
" id="DejaVuSans-68"/>
     <path d="M 8.5 21.578125 
L 8.5 54.6875 
L 17.484375 54.6875 
L 17.484375 21.921875 
Q 17.484375 14.15625 20.5 10.265625 
Q 23.53125 6.390625 29.59375 6.390625 
Q 36.859375 6.390625 41.078125 11.03125 
Q 45.3125 15.671875 45.3125 23.6875 
L 45.3125 54.6875 
L 54.296875 54.6875 
L 54.296875 0 
L 45.3125 0 
L 45.3125 8.40625 
Q 42.046875 3.421875 37.71875 1 
Q 33.40625 -1.421875 27.6875 -1.421875 
Q 18.265625 -1.421875 13.375 4.4375 
Q 8.5 10.296875 8.5 21.578125 
z
M 31.109375 56 
z
" id="DejaVuSans-117"/>
     <path d="M 41.109375 46.296875 
Q 39.59375 47.171875 37.8125 47.578125 
Q 36.03125 48 33.890625 48 
Q 26.265625 48 22.1875 43.046875 
Q 18.109375 38.09375 18.109375 28.8125 
L 18.109375 0 
L 9.078125 0 
L 9.078125 54.6875 
L 18.109375 54.6875 
L 18.109375 46.1875 
Q 20.953125 51.171875 25.484375 53.578125 
Q 30.03125 56 36.53125 56 
Q 37.453125 56 38.578125 55.875 
Q 39.703125 55.765625 41.0625 55.515625 
z
" id="DejaVuSans-114"/>
     <path d="M 34.28125 27.484375 
Q 23.390625 27.484375 19.1875 25 
Q 14.984375 22.515625 14.984375 16.5 
Q 14.984375 11.71875 18.140625 8.90625 
Q 21.296875 6.109375 26.703125 6.109375 
Q 34.1875 6.109375 38.703125 11.40625 
Q 43.21875 16.703125 43.21875 25.484375 
L 43.21875 27.484375 
z
M 52.203125 31.203125 
L 52.203125 0 
L 43.21875 0 
L 43.21875 8.296875 
Q 40.140625 3.328125 35.546875 0.953125 
Q 30.953125 -1.421875 24.3125 -1.421875 
Q 15.921875 -1.421875 10.953125 3.296875 
Q 6 8.015625 6 15.921875 
Q 6 25.140625 12.171875 29.828125 
Q 18.359375 34.515625 30.609375 34.515625 
L 43.21875 34.515625 
L 43.21875 35.40625 
Q 43.21875 41.609375 39.140625 45 
Q 35.0625 48.390625 27.6875 48.390625 
Q 23 48.390625 18.546875 47.265625 
Q 14.109375 46.140625 10.015625 43.890625 
L 10.015625 52.203125 
Q 14.9375 54.109375 19.578125 55.046875 
Q 24.21875 56 28.609375 56 
Q 40.484375 56 46.34375 49.84375 
Q 52.203125 43.703125 52.203125 31.203125 
z
" id="DejaVuSans-97"/>
     <path d="M 30.609375 48.390625 
Q 23.390625 48.390625 19.1875 42.75 
Q 14.984375 37.109375 14.984375 27.296875 
Q 14.984375 17.484375 19.15625 11.84375 
Q 23.34375 6.203125 30.609375 6.203125 
Q 37.796875 6.203125 41.984375 11.859375 
Q 46.1875 17.53125 46.1875 27.296875 
Q 46.1875 37.015625 41.984375 42.703125 
Q 37.796875 48.390625 30.609375 48.390625 
z
M 30.609375 56 
Q 42.328125 56 49.015625 48.375 
Q 55.71875 40.765625 55.71875 27.296875 
Q 55.71875 13.875 49.015625 6.21875 
Q 42.328125 -1.421875 30.609375 -1.421875 
Q 18.84375 -1.421875 12.171875 6.21875 
Q 5.515625 13.875 5.515625 27.296875 
Q 5.515625 40.765625 12.171875 48.375 
Q 18.84375 56 30.609375 56 
z
" id="DejaVuSans-111"/>
     <path d="M 54.890625 33.015625 
L 54.890625 0 
L 45.90625 0 
L 45.90625 32.71875 
Q 45.90625 40.484375 42.875 44.328125 
Q 39.84375 48.1875 33.796875 48.1875 
Q 26.515625 48.1875 22.3125 43.546875 
Q 18.109375 38.921875 18.109375 30.90625 
L 18.109375 0 
L 9.078125 0 
L 9.078125 54.6875 
L 18.109375 54.6875 
L 18.109375 46.1875 
Q 21.34375 51.125 25.703125 53.5625 
Q 30.078125 56 35.796875 56 
Q 45.21875 56 50.046875 50.171875 
Q 54.890625 44.34375 54.890625 33.015625 
z
" id="DejaVuSans-110"/>
     <path id="DejaVuSans-32"/>
     <path d="M 37.109375 75.984375 
L 37.109375 68.5 
L 28.515625 68.5 
Q 23.6875 68.5 21.796875 66.546875 
Q 19.921875 64.59375 19.921875 59.515625 
L 19.921875 54.6875 
L 34.71875 54.6875 
L 34.71875 47.703125 
L 19.921875 47.703125 
L 19.921875 0 
L 10.890625 0 
L 10.890625 47.703125 
L 2.296875 47.703125 
L 2.296875 54.6875 
L 10.890625 54.6875 
L 10.890625 58.5 
Q 10.890625 67.625 15.140625 71.796875 
Q 19.390625 75.984375 28.609375 75.984375 
z
" id="DejaVuSans-102"/>
     <path d="M 48.6875 27.296875 
Q 48.6875 37.203125 44.609375 42.84375 
Q 40.53125 48.484375 33.40625 48.484375 
Q 26.265625 48.484375 22.1875 42.84375 
Q 18.109375 37.203125 18.109375 27.296875 
Q 18.109375 17.390625 22.1875 11.75 
Q 26.265625 6.109375 33.40625 6.109375 
Q 40.53125 6.109375 44.609375 11.75 
Q 48.6875 17.390625 48.6875 27.296875 
z
M 18.109375 46.390625 
Q 20.953125 51.265625 25.265625 53.625 
Q 29.59375 56 35.59375 56 
Q 45.5625 56 51.78125 48.09375 
Q 58.015625 40.1875 58.015625 27.296875 
Q 58.015625 14.40625 51.78125 6.484375 
Q 45.5625 -1.421875 35.59375 -1.421875 
Q 29.59375 -1.421875 25.265625 0.953125 
Q 20.953125 3.328125 18.109375 8.203125 
L 18.109375 0 
L 9.078125 0 
L 9.078125 75.984375 
L 18.109375 75.984375 
z
" id="DejaVuSans-98"/>
     <path d="M 32.171875 -5.078125 
Q 28.375 -14.84375 24.75 -17.8125 
Q 21.140625 -20.796875 15.09375 -20.796875 
L 7.90625 -20.796875 
L 7.90625 -13.28125 
L 13.1875 -13.28125 
Q 16.890625 -13.28125 18.9375 -11.515625 
Q 21 -9.765625 23.484375 -3.21875 
L 25.09375 0.875 
L 2.984375 54.6875 
L 12.5 54.6875 
L 29.59375 11.921875 
L 46.6875 54.6875 
L 56.203125 54.6875 
z
" id="DejaVuSans-121"/>
     <path d="M 54.890625 54.6875 
L 35.109375 28.078125 
L 55.90625 0 
L 45.3125 0 
L 29.390625 21.484375 
L 13.484375 0 
L 2.875 0 
L 24.125 28.609375 
L 4.6875 54.6875 
L 15.28125 54.6875 
L 29.78125 35.203125 
L 44.28125 54.6875 
z
" id="DejaVuSans-120"/>
     <path d="M 18.109375 8.203125 
L 18.109375 -20.796875 
L 9.078125 -20.796875 
L 9.078125 54.6875 
L 18.109375 54.6875 
L 18.109375 46.390625 
Q 20.953125 51.265625 25.265625 53.625 
Q 29.59375 56 35.59375 56 
Q 45.5625 56 51.78125 48.09375 
Q 58.015625 40.1875 58.015625 27.296875 
Q 58.015625 14.40625 51.78125 6.484375 
Q 45.5625 -1.421875 35.59375 -1.421875 
Q 29.59375 -1.421875 25.265625 0.953125 
Q 20.953125 3.328125 18.109375 8.203125 
z
M 48.6875 27.296875 
Q 48.6875 37.203125 44.609375 42.84375 
Q 40.53125 48.484375 33.40625 48.484375 
Q 26.265625 48.484375 22.1875 42.84375 
Q 18.109375 37.203125 18.109375 27.296875 
Q 18.109375 17.390625 22.1875 11.75 
Q 26.265625 6.109375 33.40625 6.109375 
Q 40.53125 6.109375 44.609375 11.75 
Q 48.6875 17.390625 48.6875 27.296875 
z
" id="DejaVuSans-112"/>
     <path d="M 9.421875 75.984375 
L 18.40625 75.984375 
L 18.40625 0 
L 9.421875 0 
z
" id="DejaVuSans-108"/>
    </defs>
    <g transform="translate(423.096188 54.3072)scale(0.12 -0.12)">
     <use xlink:href="#DejaVuSans-68"/>
     <use x="77.001953" xlink:href="#DejaVuSans-117"/>
     <use x="140.380859" xlink:href="#DejaVuSans-114"/>
     <use x="181.494141" xlink:href="#DejaVuSans-97"/>
     <use x="242.773438" xlink:href="#DejaVuSans-116"/>
     <use x="281.982422" xlink:href="#DejaVuSans-105"/>
     <use x="309.765625" xlink:href="#DejaVuSans-111"/>
     <use x="370.947266" xlink:href="#DejaVuSans-110"/>
     <use x="434.326172" xlink:href="#DejaVuSans-32"/>
     <use x="466.113281" xlink:href="#DejaVuSans-111"/>
     <use x="527.294922" xlink:href="#DejaVuSans-102"/>
     <use x="562.5" xlink:href="#DejaVuSans-32"/>
     <use x="594.287109" xlink:href="#DejaVuSans-97"/>
     <use x="655.566406" xlink:href="#DejaVuSans-32"/>
     <use x="687.353516" xlink:href="#DejaVuSans-53"/>
     <use x="750.976562" xlink:href="#DejaVuSans-32"/>
     <use x="782.763672" xlink:href="#DejaVuSans-98"/>
     <use x="846.240234" xlink:href="#DejaVuSans-121"/>
     <use x="905.419922" xlink:href="#DejaVuSans-32"/>
     <use x="937.207031" xlink:href="#DejaVuSans-120"/>
     <use x="996.386719" xlink:href="#DejaVuSans-32"/>
     <use x="1028.173828" xlink:href="#DejaVuSans-112"/>
     <use x="1091.650391" xlink:href="#DejaVuSans-117"/>
     <use x="1155.029297" xlink:href="#DejaVuSans-122"/>
     <use x="1207.519531" xlink:href="#DejaVuSans-122"/>
     <use x="1260.009766" xlink:href="#DejaVuSans-108"/>
     <use x="1287.792969" xlink:href="#DejaVuSans-101"/>
    </g>
   </g>
   <g id="legend_1">
    <g id="patch_7">
     <path d="M 129.94 141.697825 
L 201.099375 141.697825 
Q 203.099375 141.697825 203.099375 139.697825 
L 203.099375 67.3072 
Q 203.099375 65.3072 201.099375 65.3072 
L 129.94 65.3072 
Q 127.94 65.3072 127.94 67.3072 
L 127.94 139.697825 
Q 127.94 141.697825 129.94 141.697825 
z
" style="fill:#ffffff;opacity:0.8;stroke:#cccccc;stroke-linejoin:miter;"/>
    </g>
    <g id="line2d_192">
     <path d="M 131.94 73.405637 
L 151.94 73.405637 
" style="fill:none;stroke:#1f77b4;stroke-linecap:square;stroke-width:1.5;"/>
    </g>
    <g id="line2d_193"/>
    <g id="text_15">
     <!-- (5, x, 2) -->
     <defs>
      <path d="M 31 75.875 
Q 24.46875 64.65625 21.28125 53.65625 
Q 18.109375 42.671875 18.109375 31.390625 
Q 18.109375 20.125 21.3125 9.0625 
Q 24.515625 -2 31 -13.1875 
L 23.1875 -13.1875 
Q 15.875 -1.703125 12.234375 9.375 
Q 8.59375 20.453125 8.59375 31.390625 
Q 8.59375 42.28125 12.203125 53.3125 
Q 15.828125 64.359375 23.1875 75.875 
z
" id="DejaVuSans-40"/>
      <path d="M 11.71875 12.40625 
L 22.015625 12.40625 
L 22.015625 4 
L 14.015625 -11.625 
L 7.71875 -11.625 
L 11.71875 4 
z
" id="DejaVuSans-44"/>
      <path d="M 8.015625 75.875 
L 15.828125 75.875 
Q 23.140625 64.359375 26.78125 53.3125 
Q 30.421875 42.28125 30.421875 31.390625 
Q 30.421875 20.453125 26.78125 9.375 
Q 23.140625 -1.703125 15.828125 -13.1875 
L 8.015625 -13.1875 
Q 14.5 -2 17.703125 9.0625 
Q 20.90625 20.125 20.90625 31.390625 
Q 20.90625 42.671875 17.703125 53.65625 
Q 14.5 64.65625 8.015625 75.875 
z
" id="DejaVuSans-41"/>
     </defs>
     <g transform="translate(159.94 76.905637)scale(0.1 -0.1)">
      <use xlink:href="#DejaVuSans-40"/>
      <use x="39.013672" xlink:href="#DejaVuSans-53"/>
      <use x="102.636719" xlink:href="#DejaVuSans-44"/>
      <use x="134.423828" xlink:href="#DejaVuSans-32"/>
      <use x="166.210938" xlink:href="#DejaVuSans-120"/>
      <use x="225.390625" xlink:href="#DejaVuSans-44"/>
      <use x="257.177734" xlink:href="#DejaVuSans-32"/>
      <use x="288.964844" xlink:href="#DejaVuSans-50"/>
      <use x="352.587891" xlink:href="#DejaVuSans-41"/>
     </g>
    </g>
    <g id="line2d_194">
     <path d="M 131.94 88.083762 
L 151.94 88.083762 
" style="fill:none;stroke:#ff7f0e;stroke-linecap:square;stroke-width:1.5;"/>
    </g>
    <g id="line2d_195"/>
    <g id="text_16">
     <!-- (5, x, 3) -->
     <g transform="translate(159.94 91.583762)scale(0.1 -0.1)">
      <use xlink:href="#DejaVuSans-40"/>
      <use x="39.013672" xlink:href="#DejaVuSans-53"/>
      <use x="102.636719" xlink:href="#DejaVuSans-44"/>
      <use x="134.423828" xlink:href="#DejaVuSans-32"/>
      <use x="166.210938" xlink:href="#DejaVuSans-120"/>
      <use x="225.390625" xlink:href="#DejaVuSans-44"/>
      <use x="257.177734" xlink:href="#DejaVuSans-32"/>
      <use x="288.964844" xlink:href="#DejaVuSans-51"/>
      <use x="352.587891" xlink:href="#DejaVuSans-41"/>
     </g>
    </g>
    <g id="line2d_196">
     <path d="M 131.94 102.761887 
L 151.94 102.761887 
" style="fill:none;stroke:#2ca02c;stroke-linecap:square;stroke-width:1.5;"/>
    </g>
    <g id="line2d_197"/>
    <g id="text_17">
     <!-- (5, x, 4) -->
     <g transform="translate(159.94 106.261887)scale(0.1 -0.1)">
      <use xlink:href="#DejaVuSans-40"/>
      <use x="39.013672" xlink:href="#DejaVuSans-53"/>
      <use x="102.636719" xlink:href="#DejaVuSans-44"/>
      <use x="134.423828" xlink:href="#DejaVuSans-32"/>
      <use x="166.210938" xlink:href="#DejaVuSans-120"/>
      <use x="225.390625" xlink:href="#DejaVuSans-44"/>
      <use x="257.177734" xlink:href="#DejaVuSans-32"/>
      <use x="288.964844" xlink:href="#DejaVuSans-52"/>
      <use x="352.587891" xlink:href="#DejaVuSans-41"/>
     </g>
    </g>
    <g id="line2d_198">
     <path d="M 131.94 117.440012 
L 151.94 117.440012 
" style="fill:none;stroke:#d62728;stroke-linecap:square;stroke-width:1.5;"/>
    </g>
    <g id="line2d_199"/>
    <g id="text_18">
     <!-- (5, x, 5) -->
     <g transform="translate(159.94 120.940012)scale(0.1 -0.1)">
      <use xlink:href="#DejaVuSans-40"/>
      <use x="39.013672" xlink:href="#DejaVuSans-53"/>
      <use x="102.636719" xlink:href="#DejaVuSans-44"/>
      <use x="134.423828" xlink:href="#DejaVuSans-32"/>
      <use x="166.210938" xlink:href="#DejaVuSans-120"/>
      <use x="225.390625" xlink:href="#DejaVuSans-44"/>
      <use x="257.177734" xlink:href="#DejaVuSans-32"/>
      <use x="288.964844" xlink:href="#DejaVuSans-53"/>
      <use x="352.587891" xlink:href="#DejaVuSans-41"/>
     </g>
    </g>
    <g id="line2d_200">
     <path d="M 131.94 132.118137 
L 151.94 132.118137 
" style="fill:none;stroke:#9467bd;stroke-linecap:square;stroke-width:1.5;"/>
    </g>
    <g id="line2d_201"/>
    <g id="text_19">
     <!-- (5, x, 6) -->
     <g transform="translate(159.94 135.618137)scale(0.1 -0.1)">
      <use xlink:href="#DejaVuSans-40"/>
      <use x="39.013672" xlink:href="#DejaVuSans-53"/>
      <use x="102.636719" xlink:href="#DejaVuSans-44"/>
      <use x="134.423828" xlink:href="#DejaVuSans-32"/>
      <use x="166.210938" xlink:href="#DejaVuSans-120"/>
      <use x="225.390625" xlink:href="#DejaVuSans-44"/>
      <use x="257.177734" xlink:href="#DejaVuSans-32"/>
      <use x="288.964844" xlink:href="#DejaVuSans-54"/>
      <use x="352.587891" xlink:href="#DejaVuSans-41"/>
     </g>
    </g>
   </g>
  </g>
 </g>
 <defs>
  <clipPath id="p453faea973">
   <rect height="386.9712" width="762.228" x="122.94" y="60.3072"/>
  </clipPath>
 </defs>
</svg>
